# Blender 4.5.4 LTS
# www.blender.org
mtllib door1.mtl
o Door_L
v -1.000000 0.000000 -0.125100
v -1.000000 2.500000 -0.125100
v -0.000000 0.000000 -0.125100
v -0.000000 2.500000 -0.125100
v -1.000000 0.000000 -0.000100
v -1.000000 2.500000 -0.000100
v -0.000000 0.000000 -0.000100
v -0.000000 2.500000 -0.000100
v 1.000000 0.000000 -0.125100
v 1.000000 2.500000 -0.125100
v -0.000000 0.000000 -0.125100
v -0.000000 2.500000 -0.125100
v 1.000000 0.000000 -0.000100
v 1.000000 2.500000 -0.000100
v -0.000000 0.000000 -0.000100
v -0.000000 2.500000 -0.000100
vn -0.0000 -0.0000 -1.0000
vn 1.0000 -0.0000 -0.0000
vn -0.0000 -0.0000 1.0000
vn -1.0000 -0.0000 -0.0000
vt 0.875000 0.425000
vt 0.975000 0.175000
vt 0.875000 0.175000
vt 0.987500 0.425000
vt 0.975000 0.175000
vt 0.987500 0.175000
vt 0.975000 0.425000
vt 0.975000 0.425000
vt 0.875000 0.425000
s 0
usemtl Tilesheet
f 2/1/1 3/2/1 1/3/1
f 4/4/2 7/5/2 3/6/2
f 8/7/3 5/3/3 7/5/3
f 11/2/1 10/1/1 9/3/1
f 15/5/4 12/4/4 11/6/4
f 13/3/3 16/7/3 15/5/3
f 2/1/1 4/8/1 3/2/1
f 4/4/2 8/7/2 7/5/2
f 8/7/3 6/9/3 5/3/3
f 11/2/1 12/8/1 10/1/1
f 15/5/4 16/7/4 12/4/4
f 13/3/3 14/9/3 16/7/3
